<?xml version="1.0" encoding="UTF-8"?>
<svg width="93px" height="11px" viewBox="0 0 93 11" version="1.1" xmlns="http://www.w3.org/2000/svg" xmlns:xlink="http://www.w3.org/1999/xlink">
    <!-- Generator: Sketch 41.2 (35397) - http://www.bohemiancoding.com/sketch -->
    <title>Page-1</title>
    <desc>Created with Sketch.</desc>
    <defs></defs>
    <g id="Page-1" stroke="none" stroke-width="1" fill="none" fill-rule="evenodd">
        <g id="Desktop-HD" transform="translate(-17.000000, -21.000000)" fill="#FFFFFF">
            <g id="Navbar-1" transform="translate(-280.000000, 0.000000)">
                <g id="logo" transform="translate(297.000000, 21.000000)">
                    <g id="Page-1">
                        <path d="M14.655,0.265 L11.535,10 L9.225,10 L7.365,2.935 L5.445,10 L3.135,10 L0.12,0.265 L2.55,0.265 L4.44,7.375 L6.33,0.265 L8.505,0.265 L10.545,7.375 L12.285,0.265 L14.655,0.265 Z M18.165,10 L15.825,10 L15.825,0.265 L18.165,0.265 L18.165,10 Z M27.735,6.58 L27.735,7.225 C27.735,7.8050029 27.630001,8.29249803 27.42,8.6875 C27.2099989,9.08250198 26.900002,9.38249898 26.49,9.5875 C26.0799979,9.79250103 25.6325024,9.93749958 25.1475,10.0225 C24.6624976,10.1075004 24.0850033,10.15 23.415,10.15 C22.4849953,10.15 21.3350068,10.0600009 19.965,9.88 L19.965,8.095 C21.6250083,8.3550013 22.7849967,8.485 23.445,8.485 C24.7450065,8.485 25.395,8.15000335 25.395,7.48 L25.395,6.85 C25.395,6.55999855 25.3100008,6.32250093 25.14,6.1375 C24.9699991,5.95249908 24.6300025,5.86 24.12,5.86 L22.98,5.86 C20.8399893,5.86 19.77,5.0100085 19.77,3.31 L19.77,2.59 C19.77,1.7499958 20.1224965,1.12750203 20.8275,0.7225 C21.5325035,0.317497975 22.6599922,0.115 24.21,0.115 C24.9600037,0.115 25.9749936,0.17999935 27.255,0.31 L27.255,2.05 C25.7349924,1.8699991 24.6950028,1.78 24.135,1.78 C23.3649961,1.78 22.8350014,1.84499935 22.545,1.975 C22.2549985,2.10500065 22.11,2.32499845 22.11,2.635 L22.11,3.325 C22.11,3.83500255 22.5399957,4.09 23.4,4.09 L24.57,4.09 C25.7100057,4.09 26.5224976,4.2999979 27.0075,4.72 C27.4925024,5.1400021 27.735,5.7599959 27.735,6.58 Z M36.93,10 L29.355,10 L29.355,0.265 L36.78,0.265 L36.78,1.93 L31.695,1.93 L31.695,4.165 L36.285,4.165 L36.285,5.83 L31.695,5.83 L31.695,8.335 L36.93,8.335 L36.93,10 Z" id="WISE"></path>
                        <path d="M51.338,6.325 L51.338,7.825 C51.338,8.63500405 51.0130033,9.1999984 50.363,9.52 C49.7129968,9.8400016 48.7480064,10 47.468,10 L43.418,10 L43.418,0.265 L47.363,0.265 C48.7430069,0.265 49.6779976,0.41999845 50.168,0.73 C50.6580025,1.04000155 50.903,1.57999615 50.903,2.35 L50.903,3.55 C50.903,3.8300014 50.7930011,4.0899988 50.573,4.33 C50.3529989,4.5700012 50.1030014,4.7299996 49.823,4.81 L49.823,4.885 C50.1830018,4.9250002 50.5254984,5.0849986 50.8505,5.365 C51.1755016,5.6450014 51.338,5.9649982 51.338,6.325 Z M48.653,3.25 L48.653,2.77 C48.653,2.4499984 48.5780008,2.2300006 48.428,2.11 C48.2779993,1.9899994 47.908003,1.93 47.318,1.93 L45.758,1.93 L45.758,4.225 L47.363,4.225 C47.9130028,4.225 48.2654992,4.1550007 48.4205,4.015 C48.5755008,3.8749993 48.653,3.62000185 48.653,3.25 Z M48.998,7.51 L48.998,6.73 C48.998,6.3699982 48.9055009,6.11500075 48.7205,5.965 C48.5354991,5.81499925 48.2080024,5.74 47.738,5.74 L45.758,5.74 L45.758,8.335 L47.423,8.335 C47.9930029,8.335 48.3979988,8.27000065 48.638,8.14 C48.8780012,8.00999935 48.998,7.80000145 48.998,7.51 Z M61.973,3.07 L61.973,7.33 C61.973,7.88000275 61.8280015,8.34999805 61.538,8.74 C61.2479986,9.13000195 60.8580025,9.42249903 60.368,9.6175 C59.8779976,9.81250098 59.3880025,9.9499996 58.898,10.03 C58.4079976,10.1100004 57.8880028,10.15 57.338,10.15 C56.8179974,10.15 56.3305023,10.1175003 55.8755,10.0525 C55.4204977,9.98749968 54.9355026,9.8650009 54.4205,9.685 C53.9054974,9.5049991 53.4955015,9.215002 53.1905,8.815 C52.8854985,8.414998 52.733,7.92000295 52.733,7.33 L52.733,3.07 C52.733,2.5699975 52.8454989,2.1300019 53.0705,1.75 C53.2955011,1.3699981 53.5654984,1.080001 53.8805,0.88 C54.1955016,0.679999 54.5779978,0.517500625 55.028,0.3925 C55.4780023,0.267499375 55.8779983,0.19000015 56.228,0.16 C56.5780018,0.12999985 56.9479981,0.115 57.338,0.115 C57.738002,0.115 58.1154982,0.12999985 58.4705,0.16 C58.8255018,0.19000015 59.2279978,0.267499375 59.678,0.3925 C60.1280023,0.517500625 60.5129984,0.679999 60.833,0.88 C61.1530016,1.080001 61.4229989,1.36749813 61.643,1.7425 C61.8630011,2.11750188 61.973,2.55999745 61.973,3.07 Z M59.633,7.33 L59.633,3.055 C59.633,2.58499765 59.4405019,2.25500095 59.0555,2.065 C58.6704981,1.87499905 58.1030038,1.78 57.353,1.78 C56.5929962,1.78 56.0230019,1.87249908 55.643,2.0575 C55.2629981,2.24250093 55.073,2.5749976 55.073,3.055 L55.073,7.33 C55.073,7.58000125 55.1379994,7.78749918 55.268,7.9525 C55.3980007,8.11750083 55.5854988,8.23499965 55.8305,8.305 C56.0755012,8.37500035 56.3104989,8.42249988 56.5355,8.4475 C56.7605011,8.47250013 57.0379984,8.485 57.368,8.485 C57.6980017,8.485 57.9754989,8.47250013 58.2005,8.4475 C58.4255011,8.42249988 58.6579988,8.37500035 58.898,8.305 C59.1380012,8.23499965 59.3204994,8.11750083 59.4455,7.9525 C59.5705006,7.78749918 59.633,7.58000125 59.633,7.33 Z M72.803,10 L70.433,10 L69.563,7.435 L66.008,7.435 L65.153,10 L62.843,10 L66.443,0.265 L69.293,0.265 L72.803,10 Z M69.053,5.875 L67.823,2.215 L67.763,2.215 L66.533,5.875 L69.053,5.875 Z M82.553,10 L79.853,10 L77.303,6.175 L76.223,6.175 L76.223,10 L73.883,10 L73.883,0.265 L78.263,0.265 C79.5430064,0.265 80.4779971,0.41999845 81.068,0.73 C81.658003,1.04000155 81.953,1.56999625 81.953,2.32 L81.953,4.03 C81.953,4.62000295 81.7405021,5.0749984 81.3155,5.395 C80.8904979,5.7150016 80.3630032,5.9149996 79.733,5.995 L82.553,10 Z M79.658,3.565 L79.658,2.875 C79.658,2.5149982 79.5505011,2.26750068 79.3355,2.1325 C79.1204989,1.99749933 78.7530026,1.93 78.233,1.93 L76.223,1.93 L76.223,4.63 L78.233,4.63 C78.7830028,4.63 79.157999,4.55750073 79.358,4.4125 C79.558001,4.26749928 79.658,3.9850021 79.658,3.565 Z M92.663,3.22 L92.663,7.18 C92.663,8.2800055 92.3230034,9.02499805 91.643,9.415 C90.9629966,9.80500195 89.7680086,10 88.058,10 L83.903,10 L83.903,0.265 L88.043,0.265 C89.6930083,0.265 90.8754964,0.46999795 91.5905,0.88 C92.3055036,1.29000205 92.663,2.06999425 92.663,3.22 Z M90.323,7.18 L90.323,3.175 C90.323,2.70499765 90.1330019,2.3800009 89.753,2.2 C89.3729981,2.0199991 88.7980039,1.93 88.028,1.93 L86.243,1.93 L86.243,8.335 L87.953,8.335 C88.8530045,8.335 89.4729983,8.26750068 89.813,8.1325 C90.1530017,7.99749933 90.323,7.6800025 90.323,7.18 Z" id="BOARD"></path>
                    </g>
                </g>
            </g>
        </g>
    </g>
</svg>