<?xml version="1.0" encoding="utf-8"?>
<!-- Generator: Adobe Illustrator 19.2.0, SVG Export Plug-In . SVG Version: 6.00 Build 0)  -->
<svg version="1.1" id="Layer_1" xmlns="http://www.w3.org/2000/svg" xmlns:xlink="http://www.w3.org/1999/xlink" x="0px" y="0px"
	 viewBox="0 0 606 201.3" style="enable-background:new 0 0 606 201.3;" xml:space="preserve">
<style type="text/css">
	.st0{fill:#901F61;}
</style>
<g>
	<g>
		<g>
			<path class="st0" d="M230.9,85.9c0-1.4-1.1-2.4-2.4-2.4c-0.7,0-1.3,0.3-2.1,1c-2.1,2-4.4,2.9-7.5,2.9c-7,0-11.9-5.2-11.9-12.6
				c0-7.5,4.9-12.7,12-12.7c3.5,0,5.7,1.7,6.5,2.5c1.3,1.2,1.9,1.4,2.6,1.4c1.4,0,2.5-1.1,2.5-2.4c0-0.8-0.3-1.4-1-2.1
				c-2.7-2.5-6.7-4-10.7-4c-10.4,0-17.6,7.1-17.6,17.4c0,10.2,7.3,17.4,17.6,17.4c4.5,0,8.3-1.4,11.1-4.2
				C230.6,87.4,230.9,86.7,230.9,85.9z"/>
			<path class="st0" d="M239.6,91.8c1.3,0,2.7-0.8,2.7-2.9V74.4c0-8.5,4.7-12.3,9.4-12.3c5.8,0,8.4,3.4,8.4,10.9v15.8
				c0,2.2,1.4,2.9,2.7,2.9c1.3,0,2.7-0.8,2.7-2.9V71.2c0-8.7-4.6-13.7-12.7-13.7c-4.4,0-8.6,2.1-10.6,5.3v-22c0-2.2-1.4-2.9-2.7-2.9
				s-2.7,0.8-2.7,2.9v48.1C236.9,91.1,238.3,91.8,239.6,91.8z"/>
			<path class="st0" d="M280.5,88.9V60.7c0-2.2-1.4-2.9-2.7-2.9c-1.3,0-2.7,0.8-2.7,2.9v28.2c0,2.2,1.4,2.9,2.7,2.9
				S280.5,91.1,280.5,88.9z"/>
			<path class="st0" d="M277.8,49.9c1.8,0,3.7-1.5,3.7-3.7s-1.9-3.7-3.7-3.7c-1.8,0-3.7,1.5-3.7,3.7C274.1,48.4,276,49.9,277.8,49.9
				z"/>
			<path class="st0" d="M292.4,91.8c1.3,0,2.7-0.8,2.7-2.9V40.8c0-2.2-1.4-2.9-2.7-2.9c-1.3,0-2.7,0.8-2.7,2.9v48.1
				C289.7,91.1,291.1,91.8,292.4,91.8z"/>
			<path class="st0" d="M334.4,37.9c-1.3,0-2.7,0.8-2.7,2.9v22.4c-2.7-3.6-7.2-5.8-12-5.8c-9.9,0-17.1,7.3-17.1,17.4
				s7.2,17.4,17.1,17.4c4.7,0,9.2-2.2,12-5.7v2.4c0,2.2,1.4,2.9,2.7,2.9c1.3,0,2.7-0.8,2.7-2.9V40.8
				C337.1,38.7,335.7,37.9,334.4,37.9z M320.2,87.4c-7.1,0-11.8-5.1-11.8-12.6c0-6.3,3.7-12.7,11.8-12.7c7,0,12.1,5.3,12.1,12.7
				C332.2,82.1,327.2,87.4,320.2,87.4z"/>
			<path class="st0" d="M346.3,88.9c0,2.2,1.4,2.9,2.7,2.9c1.3,0,2.7-0.8,2.7-2.9V74.4c0-5.7,2.4-11.8,9.1-11.8c0.2,0,0.4,0,0.6,0
				c0.3,0,0.6,0,1,0c1.8,0,2.9-1,2.9-2.7c0-0.5-0.2-1.7-1.5-2.2c-0.5-0.2-1.2-0.3-2.1-0.3c-4.2,0-8.1,2.2-10.2,5.6l-0.1-2.5
				c-0.1-2.5-1.9-2.8-2.7-2.8c-0.3,0-1.2,0.1-1.9,0.8c-0.5,0.5-0.7,1.2-0.7,2c0.1,1.1,0.1,3.9,0.1,5.2v23.2H346.3z"/>
			<path class="st0" d="M393.7,89.4c4.5-2.6,7.3-6.4,8.4-11.2c0.2-0.8,0.1-1.4-0.3-2c-0.4-0.8-1.2-1.2-2.1-1.2
				c-0.5,0-0.9,0.1-1.3,0.4c-0.7,0.4-1.1,1-1.3,1.9c-0.8,3.6-2.7,6.3-5.8,8.1c-1.8,1-3.7,1.6-5.7,1.6c-3.9,0-7.5-2-9.7-5.4l20.7-12
				c0.8-0.5,1.3-1.1,1.5-1.7c0.2-0.7,0.1-1.4-0.4-2.2c-3.1-5.4-8-8.5-13.4-8.5c-2.8,0-5.6,0.8-8.4,2.4c-8.2,4.8-10.7,14.8-5.8,23.4
				c3.2,5.6,8.7,8.9,14.7,8.9C388,91.8,391,91,393.7,89.4z M383.8,62c3.2,0,6.2,1.8,8.4,4.9l-18.4,10.6c-2-4.5-0.8-10.9,4.5-14
				C380.2,62.6,382,62,383.8,62z"/>
			<path class="st0" d="M423.3,57.5c-4.4,0-8.7,2.3-10.9,5.6l-0.1-2.5c-0.1-2.5-1.9-2.8-2.7-2.8c-0.3,0-1.2,0.1-1.9,0.8
				c-0.5,0.5-0.7,1.2-0.7,2c0.1,1.1,0.1,3.9,0.1,5.2v23.1c0,2.2,1.4,2.9,2.7,2.9c1.3,0,2.7-0.8,2.7-2.9V74.4
				c0-8.5,4.7-12.3,9.4-12.3c5.8,0,8.4,3.4,8.4,10.9v15.8c0,2.2,1.4,2.9,2.7,2.9c1.3,0,2.7-0.8,2.7-2.9V71.2
				C436,62.5,431.4,57.5,423.3,57.5z"/>
			<path class="st0" d="M206.4,109.2c-1.8,0-3.7,1.5-3.7,3.7s1.9,3.7,3.7,3.7s3.7-1.5,3.7-3.7C210.1,110.7,208.2,109.2,206.4,109.2z
				"/>
			<path class="st0" d="M206.4,124.4c-1.3,0-2.7,0.8-2.7,2.9v28.2c0,2.2,1.4,2.9,2.7,2.9s2.7-0.8,2.7-2.9v-28.2
				C209.1,125.2,207.7,124.4,206.4,124.4z"/>
			<path class="st0" d="M235.5,124.1c-4.4,0-8.7,2.3-10.9,5.6l-0.1-2.5c-0.1-2.5-1.9-2.8-2.7-2.8c-0.3,0-1.2,0.1-1.9,0.8
				c-0.5,0.5-0.7,1.2-0.7,2c0.1,1.1,0.1,3.9,0.1,5.2v23.1c0,2.2,1.4,2.9,2.7,2.9s2.7-0.8,2.7-2.9V141c0-8.5,4.7-12.3,9.4-12.3
				c5.8,0,8.4,3.4,8.4,10.9v15.8c0,2.2,1.4,2.9,2.7,2.9s2.7-0.8,2.7-2.9v-17.7C248.2,129.1,243.6,124.1,235.5,124.1z"/>
			<path class="st0" d="M270.7,129.6c2,0,2.6-1.4,2.6-2.3c0-1.1-0.7-2.4-2.6-2.4h-7v-6.7c0-2.2-1.4-2.9-2.7-2.9s-2.7,0.8-2.7,2.9
				v6.7h-4.6c-1.9,0-2.6,1.3-2.6,2.4c0,0.9,0.5,2.3,2.6,2.3h4.6v19.8c0,8.1,6.1,9,8.7,9c1.7,0,3.5-0.3,4.5-0.7
				c1.6-0.7,1.8-1.9,1.8-2.3c0-1.4-0.9-2.3-2.2-2.3c-0.3,0-0.7,0.1-1.1,0.2c-0.7,0.3-1.3,0.4-1.9,0.4c-2.1,0-4.3-0.7-4.3-5.6v-18.5
				L270.7,129.6L270.7,129.6z"/>
			<path class="st0" d="M308.8,141.6c-0.5,0-0.9,0.1-1.3,0.4c-0.7,0.4-1.1,1-1.3,1.9c-0.8,3.6-2.7,6.3-5.8,8.1
				c-1.8,1-3.7,1.6-5.7,1.6c-3.9,0-7.5-2-9.7-5.4l20.7-12c1.7-1,2.1-2.3,1.1-3.9c-3.1-5.4-8-8.5-13.4-8.5c-2.8,0-5.6,0.8-8.4,2.4
				c-4,2.3-6.7,5.9-7.8,10.2c-1.1,4.3-0.4,9,2,13.1c3.2,5.6,8.7,8.9,14.7,8.9c3,0,6-0.8,8.7-2.4c4.5-2.6,7.3-6.4,8.4-11.2
				c0.2-0.8,0.1-1.4-0.3-2C310.5,142.1,309.7,141.6,308.8,141.6z M308.9,142C308.8,142,308.8,142,308.9,142
				C308.8,142,308.8,142,308.9,142C308.8,142,308.8,142,308.9,142z M292.9,128.7c3.2,0,6.2,1.8,8.4,4.9l-18.4,10.6
				c-2-4.5-0.8-10.9,4.5-14C289.3,129.2,291.1,128.7,292.9,128.7z M289.4,128.9L289.4,128.9L289.4,128.9z"/>
			<path class="st0" d="M335.4,124.4c-0.5-0.2-1.2-0.3-2.1-0.3c-4.2,0-8.1,2.2-10.2,5.6l-0.1-2.5c-0.1-2.5-1.9-2.8-2.7-2.8
				c-0.3,0-1.2,0.1-1.9,0.8c-0.5,0.5-0.7,1.2-0.7,2c0.1,1.1,0.1,3.9,0.1,5.2v23.1c0,2.2,1.4,2.9,2.7,2.9c1.3,0,2.7-0.8,2.7-2.9V141
				c0-5.7,2.4-11.8,9.1-11.8c0.2,0,0.4,0,0.6,0c0.3,0,0.6,0,1,0c1.8,0,2.9-1,2.9-2.7C336.9,126.1,336.7,125,335.4,124.4z"/>
			<path class="st0" d="M358.9,124.1c-4.4,0-8.7,2.3-10.9,5.6l-0.1-2.5c-0.1-2.5-1.9-2.8-2.7-2.8c-0.3,0-1.2,0.1-1.9,0.8
				c-0.5,0.5-0.7,1.2-0.7,2c0.1,1.1,0.1,3.9,0.1,5.2v23.1c0,2.2,1.4,2.9,2.7,2.9c1.3,0,2.7-0.8,2.7-2.9V141c0-8.5,4.7-12.3,9.4-12.3
				c5.8,0,8.4,3.4,8.4,10.9v15.8c0,2.2,1.4,2.9,2.7,2.9c1.3,0,2.7-0.8,2.7-2.9v-17.7C371.5,129.1,366.9,124.1,358.9,124.1z"/>
			<path class="st0" d="M406,154.5c-0.1-1.1-0.2-2.2-0.2-4.2v-14.2c0-7.5-5-12.1-12.9-12.1c-4.6,0-8.9,1.4-11.6,3.7
				c-0.7,0.6-1,1.3-1,2c0,1.3,0.9,2.3,2.2,2.3c0.6,0,1.2-0.2,1.9-0.7c2.5-1.8,5.1-2.6,8.1-2.6c5.5,0,8.3,2.7,8.3,8v0.7
				c-11.6,0-22.8,1-22.8,11.2c0,7,6,10.2,11.6,10.2c5,0,8.6-1.7,11.5-5.5c0,0.8,0.1,1.6,0.2,2.5c0.3,2.4,1.9,2.7,2.6,2.7
				c1.2,0,2.4-0.8,2.4-2.6c0-0.3,0-0.6-0.1-1.1L406,154.5z M390.7,154.2c-1.7,0-7.2-0.4-7.2-5.8c0-2.8,1.7-6.6,16.2-6.6h1v2
				C400.7,148.8,397.5,154.2,390.7,154.2z"/>
			<path class="st0" d="M428.3,129.6c2,0,2.6-1.4,2.6-2.3c0-1.1-0.7-2.4-2.6-2.4h-7v-6.7c0-2.2-1.4-2.9-2.7-2.9
				c-1.3,0-2.7,0.8-2.7,2.9v6.7h-4.6c-1.9,0-2.6,1.3-2.6,2.4c0,0.9,0.5,2.3,2.6,2.3h4.6v19.8c0,8.1,6.1,9,8.7,9
				c1.7,0,3.5-0.3,4.5-0.7c1.6-0.7,1.8-1.9,1.8-2.3c0-1.4-0.9-2.3-2.2-2.3c-0.3,0-0.7,0.1-1.1,0.2c-0.7,0.3-1.3,0.4-1.9,0.4
				c-2.1,0-4.3-0.7-4.3-5.6v-18.5L428.3,129.6L428.3,129.6z"/>
			<path class="st0" d="M439.9,124.4c-1.3,0-2.7,0.8-2.7,2.9v28.2c0,2.2,1.4,2.9,2.7,2.9c1.3,0,2.7-0.8,2.7-2.9v-28.2
				C442.6,125.2,441.2,124.4,439.9,124.4z"/>
			<path class="st0" d="M439.9,109.2c-1.8,0-3.7,1.5-3.7,3.7s1.9,3.7,3.7,3.7c1.8,0,3.7-1.5,3.7-3.7S441.7,109.2,439.9,109.2z"/>
			<path class="st0" d="M466.9,124.1c-10.2,0-17.6,7.3-17.6,17.4s7.4,17.4,17.6,17.4s17.6-7.3,17.6-17.4S477.1,124.1,466.9,124.1z
				 M466.9,154.1c-7,0-11.8-5.2-11.8-12.6c0-7.3,5-12.7,11.8-12.7c7,0,11.9,5.2,11.9,12.7C478.8,148.9,473.9,154.1,466.9,154.1z"/>
			<path class="st0" d="M506.6,124.1c-4.4,0-8.7,2.3-10.9,5.6l-0.1-2.5c-0.1-2.5-1.9-2.8-2.7-2.8c-0.3,0-1.2,0.1-1.9,0.8
				c-0.5,0.5-0.7,1.2-0.7,2c0.1,1.1,0.1,3.9,0.1,5.2v23.1c0,2.2,1.4,2.9,2.7,2.9c1.3,0,2.7-0.8,2.7-2.9V141c0-8.5,4.7-12.3,9.4-12.3
				c5.8,0,8.4,3.4,8.4,10.9v15.8c0,2.2,1.4,2.9,2.7,2.9s2.7-0.8,2.7-2.9v-17.7C519.3,129.1,514.7,124.1,506.6,124.1z M514.2,139.7
				L514.2,139.7L514.2,139.7L514.2,139.7z"/>
			<path class="st0" d="M554.4,154.5c-0.1-1.1-0.2-2.2-0.2-4.2v-14.2c0-7.5-5-12.1-12.9-12.1c-4.6,0-8.9,1.4-11.6,3.7
				c-0.7,0.6-1,1.3-1,2c0,1.3,0.9,2.3,2.2,2.3c0.6,0,1.2-0.2,1.9-0.7c2.5-1.8,5.1-2.6,8.1-2.6c5.5,0,8.3,2.7,8.3,8v0.7
				c-11.6,0-22.8,1-22.8,11.2c0,7,6,10.2,11.6,10.2c5,0,8.6-1.7,11.5-5.5c0,0.8,0.1,1.6,0.2,2.5c0.3,2.4,1.9,2.7,2.6,2.7
				c1.2,0,2.4-0.8,2.4-2.6c0-0.3,0-0.6-0.1-1.1L554.4,154.5z M532.1,140.1L532.1,140.1L532.1,140.1z M539.1,154.2
				c-1.7,0-7.2-0.4-7.2-5.8c0-2.8,1.7-6.6,16.2-6.6h1v2C549.1,148.8,545.9,154.2,539.1,154.2z"/>
			<path class="st0" d="M565.5,104.6c-1.3,0-2.7,0.8-2.7,2.9v48.1c0,2.2,1.4,2.9,2.7,2.9s2.7-0.8,2.7-2.9v-48.1
				C568.3,105.3,566.9,104.6,565.5,104.6z"/>
		</g>
		<path class="st0" d="M155.2,152.7c-10.8-18.5-30.3-29.8-51.9-29.8s-41.1,11.3-51.9,29.8c-12.5-13-20.2-30.6-20.2-50
			c0-39.8,32.3-72.1,72.1-72.1s72.1,32.3,72.1,72.1C175.4,122.2,167.7,139.8,155.2,152.7 M141.1,164.1
			c-7.1-14.3-21.6-23.4-37.8-23.4s-30.7,9.1-37.8,23.4c-3.4-2.1-6.7-4.5-9.7-7.2c9.6-17.4,27.5-28.1,47.5-28.1s38,10.7,47.5,28.1
			C147.8,159.6,144.5,162,141.1,164.1 M125.2,171.5c-4.3-8.1-12.6-13.3-21.9-13.3c-9.2,0-17.7,5.2-21.9,13.3
			c-3.7-1.2-7.4-2.7-10.8-4.5c6.1-12.5,18.7-20.4,32.7-20.4c14.1,0,26.6,7.9,32.7,20.4C132.6,168.8,128.9,170.3,125.2,171.5
			 M103.3,174.9c-5.5,0-10.9-0.6-16.1-1.8c3.4-5.5,9.5-9,16.1-9c6.7,0,12.7,3.4,16.1,9C114.2,174.2,108.8,174.9,103.3,174.9
			 M103.3,24.8c-43,0-78,35-78,78s35,78,78,78s78-35,78-78S146.3,24.8,103.3,24.8"/>
		<path class="st0" d="M103.3,77.6c-13.7,0-24.8,11.1-24.8,24.8c0,4.4,1.1,8.6,3.3,12.4c0.3,0.6,0.7,1.1,1,1.6
			c0.6,0.8,1.5,1.3,2.4,1.3c0.6,0,1.1-0.2,1.7-0.5c1.3-0.9,1.7-2.7,0.8-4.1c-0.3-0.4-0.5-0.8-0.8-1.2c-1.6-2.9-2.5-6.1-2.5-9.5
			c0-10.5,8.5-19,19-19s19,8.5,19,19c0,3.3-0.9,6.6-2.5,9.5c-0.2,0.4-0.5,0.8-0.8,1.2c-0.9,1.3-0.6,3.2,0.8,4.1
			c1.3,0.9,3.2,0.6,4.1-0.8c0.4-0.5,0.7-1.1,1-1.6c2.2-3.8,3.3-8,3.3-12.4C128.1,88.7,117,77.6,103.3,77.6"/>
		<path class="st0" d="M103.3,60.1C80,60.1,61,79.1,61,102.4c0,7.2,1.8,14.3,5.3,20.5c0.5,1,1.5,1.5,2.6,1.5c0.5,0,1-0.1,1.4-0.4
			c1.4-0.8,1.9-2.6,1.1-4c-3-5.4-4.6-11.5-4.6-17.7c0-20.1,16.3-36.4,36.4-36.4s36.4,16.3,36.4,36.4c0,6.2-1.6,12.3-4.6,17.7
			c-0.8,1.4-0.3,3.2,1.1,4c1.4,0.8,3.2,0.3,4-1.1c3.5-6.2,5.3-13.3,5.3-20.5C145.6,79.1,126.6,60.1,103.3,60.1"/>
		<path class="st0" d="M103.3,42.3c-33.1,0-60.1,27-60.1,60.1c0,10.4,3.4,22.1,9.2,31.9c0.5,0.9,1.5,1.4,2.5,1.4
			c0.5,0,1-0.1,1.5-0.4c1.4-0.8,1.8-2.6,1-4c-5.3-9-8.4-19.5-8.4-28.9c0-29.9,24.3-54.2,54.2-54.2s54.2,24.3,54.2,54.2
			c0,9.5-3,19.9-8.2,28.6c-0.8,1.4-0.4,3.2,1,4s3.2,0.4,4-1c5.7-9.6,9-21.1,9-31.6C163.4,69.3,136.4,42.3,103.3,42.3"/>
	</g>
	<g>
		<path class="st0" d="M577,108.9l-0.2-0.1c-1.2-0.4-1.8-0.7-1.8-1.4c0-1,1-1.3,1.6-1.3s1,0.1,1.4,0.5c0.9,0.8,2,0.2,2-0.7
			c0-0.3-0.1-0.6-0.4-0.8c-0.7-0.7-1.8-1.1-3-1.1c-1.9,0-3.9,1.2-3.9,3.4c0,2.5,2.1,3.1,3.2,3.4c1.5,0.5,2,0.7,2,1.6
			c0,1-1,1.4-1.7,1.4c-0.6,0-1.2-0.2-1.7-0.8c-0.2-0.2-0.5-0.4-0.8-0.4c-0.6,0-1.1,0.5-1.1,1.1c0,0.3,0.1,0.6,0.4,0.9
			c0.8,0.8,2,1.2,3.2,1.2c1.9,0,3.9-1.1,3.9-3.6C580.3,110,578.4,109.4,577,108.9z"/>
		<path class="st0" d="M591.4,104.2c-0.4,0-0.9,0.2-1.3,0.9l-3.1,7.2l-3.2-7.2c-0.3-0.8-0.9-0.9-1.3-0.9c-0.6,0-1.2,0.4-1.2,1.3v9.2
			c0,1.5,2.2,1.5,2.2,0V110l2.2,5c0.2,0.5,0.7,0.8,1.2,0.8s1-0.3,1.2-0.8l2.2-5.1v4.7c0,0.8,0.6,1.2,1.1,1.2c0.6,0,1.1-0.4,1.1-1.2
			v-9.2C592.6,104.6,592,104.2,591.4,104.2z"/>
	</g>
</g>
</svg>
